<svg width="105" height="28" viewBox="0 0 105 28" fill="none" xmlns="http://www.w3.org/2000/svg">
<path d="M7.06645 5.73939C5.22677 5.73939 3.70832 6.17419 2.54027 7.0148C1.34302 7.8554 0.700599 9.04383 0.496191 10.5511H2.97829C3.12429 9.76849 3.59151 9.13079 4.29234 8.66701C4.96396 8.20323 5.8692 7.97133 6.92044 7.97133C8.14689 7.97133 9.08155 8.23221 9.78238 8.81194C10.454 9.39167 10.775 10.1743 10.775 11.1598V12.2034H6.21978C4.1757 12.2034 2.6573 12.6381 1.60606 13.4498C0.52562 14.2614 0 15.4788 0 17.0151C0 18.4065 0.525449 19.4789 1.57669 20.2906C2.59873 21.1022 3.97135 21.508 5.69422 21.508C7.94271 21.508 9.66552 20.6384 10.892 18.9282L11.0964 21.3341H13.2571V11.3338C13.2571 9.56561 12.7023 8.17424 11.6511 7.21769C10.5706 6.23215 9.02292 5.73939 7.06645 5.73939ZM10.8044 15.044C10.8044 16.3484 10.3664 17.3919 9.49037 18.1746C8.61433 18.9862 7.41686 19.392 5.8984 19.392C4.87636 19.392 4.0589 19.1601 3.44568 18.6963C2.83245 18.2325 2.54027 17.6238 2.54027 16.8702C2.54027 15.16 3.70843 14.3194 6.01532 14.3194H10.8044V15.044Z" fill="#4A2ED9"/>
<path d="M18.5134 0C18.0462 0 17.6666 0.144925 17.3454 0.463776C17.0242 0.782626 16.8783 1.15945 16.8783 1.62323C16.8783 2.08701 17.0242 2.46384 17.3454 2.78269C17.6666 3.10154 18.0462 3.24648 18.5134 3.24648C18.9806 3.24648 19.3602 3.10154 19.6815 2.78269C20.0027 2.46384 20.1488 2.08701 20.1488 1.62323C20.1488 1.15945 20.0027 0.782626 19.6815 0.463776C19.3602 0.144925 18.9514 0 18.5134 0Z" fill="#4A2ED9"/>
<path d="M14.8047 8.20313H17.2577V21.305H19.7398V5.94219H14.8047V8.20313Z" fill="#4A2ED9"/>
<path d="M44.9403 6.69583C43.8307 6.05813 42.5166 5.76825 41.0857 5.76825C38.8372 5.76825 37.0854 6.63783 35.7713 8.406L35.45 5.94217H33.2892V27.3341H35.7713V18.9571C36.297 19.7397 36.9976 20.3484 37.8736 20.7832C38.7496 21.247 39.8593 21.4789 41.0857 21.4789C42.5166 21.4789 43.8016 21.16 44.9112 20.4934C46.0209 19.8267 46.926 18.8991 47.5684 17.7107C48.2108 16.5222 48.5029 15.1598 48.5029 13.6236C48.5029 12.0003 48.2108 10.58 47.5684 9.39155C46.926 8.23209 46.05 7.30455 44.9403 6.69583ZM44.5899 17.6817C43.6554 18.7252 42.3998 19.2759 40.8522 19.2759C39.8593 19.2759 38.9833 19.044 38.2241 18.5512C37.4356 18.0585 36.8223 17.3628 36.4135 16.4932C35.9755 15.6236 35.7713 14.6671 35.7713 13.5366C35.7713 12.4641 35.9755 11.4786 36.4135 10.609C36.8516 9.76839 37.4356 9.1017 38.2241 8.60893C38.9833 8.14515 39.8593 7.91325 40.8522 7.91325C42.3998 7.91325 43.6554 8.43501 44.5899 9.47852C45.5243 10.522 45.9917 11.9134 45.9917 13.5656C45.9917 15.2758 45.5243 16.6381 44.5899 17.6817Z" fill="#4A2ED9"/>
<path d="M23.1564 8.92779V21.305H25.6385V8.20313H31.0113V5.94219H26.164C24.4996 5.94219 23.1564 7.24657 23.1564 8.92779Z" fill="#4A2ED9"/>
<path d="M53.8762 0.202961H51.3941V21.3051H53.8762V0.202961Z" fill="#4A2ED9"/>
<path d="M63.746 5.73939C61.9063 5.73939 60.3878 6.17419 59.2198 7.0148C58.0226 7.8554 57.3801 9.04383 57.1757 10.5511H59.6578C59.8038 9.76849 60.271 9.13079 60.9719 8.66701C61.6435 8.20323 62.5487 7.97133 63.6 7.97133C64.8264 7.97133 65.7608 8.23221 66.4616 8.81194C67.1332 9.39167 67.4546 10.1743 67.4546 11.1598V12.2034H62.899C60.8549 12.2034 59.3365 12.6381 58.2853 13.4498C57.2049 14.2614 56.6792 15.4788 56.6792 17.0151C56.6792 18.4065 57.205 19.4789 58.2562 20.2906C59.2783 21.1022 60.6506 21.508 62.3735 21.508C64.6219 21.508 66.3448 20.6384 67.5712 18.9282L67.7757 21.3341H69.9367V11.3338C69.9367 9.56561 69.3818 8.17424 68.3306 7.21769C67.2502 6.23215 65.7024 5.73939 63.746 5.73939ZM67.4837 15.044C67.4837 16.3484 67.0456 17.3919 66.1696 18.1746C65.2936 18.9862 64.0964 19.392 62.5779 19.392C61.5559 19.392 60.7381 19.1601 60.1249 18.6963C59.5117 18.2325 59.2198 17.6238 59.2198 16.8702C59.2198 15.16 60.3877 14.3194 62.6946 14.3194H67.4837V15.044Z" fill="#4A2ED9"/>
<path d="M80.7411 5.73939C78.5218 5.73939 76.8281 6.49305 75.6309 8.00034L75.3095 5.9133H73.1488V21.2761H75.6309V13.5947C75.6309 11.8845 76.0688 10.4932 76.8865 9.50762C77.7041 8.52208 78.8722 8.00034 80.3031 8.00034C81.6755 8.00034 82.6973 8.43512 83.4274 9.24674C84.1282 10.0873 84.4788 11.3048 84.4788 12.899V21.3051H86.9609V12.7541C86.9609 10.3482 86.3769 8.55108 85.2673 7.4496C84.1576 6.31912 82.6392 5.73939 80.7411 5.73939Z" fill="#4A2ED9"/>
<path d="M104.277 14.0874C104.306 13.5946 104.336 13.2467 104.336 13.0438C104.307 11.5655 103.985 10.2612 103.343 9.15968C102.7 8.05819 101.854 7.18858 100.773 6.63784C99.6927 6.05811 98.4369 5.76825 97.0061 5.76825C95.5752 5.76825 94.2905 6.08711 93.1808 6.72481C92.0712 7.3915 91.1952 8.31906 90.6112 9.5075C89.9688 10.6959 89.6767 12.0583 89.6767 13.6236C89.6767 15.1598 89.9979 16.5512 90.6403 17.7107C91.2827 18.9281 92.1589 19.8557 93.2978 20.4934C94.4658 21.16 95.7798 21.4789 97.3275 21.4789C99.0795 21.4789 100.569 20.9571 101.795 19.9716C103.022 18.9861 103.781 17.7107 104.073 16.1454H101.562C101.299 17.1309 100.773 17.8846 100.014 18.4353C99.2256 19.0151 98.2909 19.2759 97.1521 19.2759C95.7212 19.2759 94.5532 18.8121 93.6479 17.9136C92.7719 17.015 92.2755 15.7976 92.2463 14.2903V14.0874H104.277ZM93.9109 9.0727C94.7869 8.31906 95.8088 7.91325 97.0061 7.91325C98.3201 7.91325 99.4006 8.26107 100.277 8.98573C101.123 9.71039 101.62 10.7249 101.737 12.0293H92.3923C92.5091 10.8119 93.0348 9.82635 93.9109 9.0727Z" fill="#4A2ED9"/>
</svg>
