<?xml version="1.0" encoding="UTF-8"?>
<svg width="415px" height="57px" viewBox="0 0 415 57" version="1.1" xmlns="http://www.w3.org/2000/svg" xmlns:xlink="http://www.w3.org/1999/xlink">
    <!-- Generator: Sketch 45.1 (43504) - http://www.bohemiancoding.com/sketch -->
    <title>Logo - Horizontal</title>
    <desc>Created with Sketch.</desc>
    <defs></defs>
    <g id="Overview" stroke="none" stroke-width="1" fill="none" fill-rule="evenodd">
        <g id="Logo" transform="translate(-188.000000, -369.000000)" fill="#2D2926">
            <g id="Horizontal" transform="translate(80.000000, 162.000000)">
                <g id="Logo---Horizontal" transform="translate(108.000000, 207.000000)">
                    <polygon id="Fill-1" points="356.690135 56.6272216 356.875135 56.6272216 356.875135 56.4432216 356.690135 56.4432216"></polygon>
                    <polygon id="Fill-2" points="365.944872 56.6272216 366.129872 56.6272216 366.129872 56.4432216 365.944872 56.4432216"></polygon>
                    <path d="M42.6687393,37.1290361 L37.0032799,1.31129381 L32.8181054,1.31129381 L21.4874822,26.9824485 L9.8506339,1.31129381 L5.71629986,1.31129381 L0,37.1290361 L6.17563746,37.1290361 L9.28902422,15.6688299 L18.9865456,37.1290361 L22.865495,37.1290361 L32.3587678,15.4658041 L35.3701781,37.1290361 L42.6687393,37.1290361 L42.6687393,37.1290361 Z M84.4693483,37.1290361 L67.9328989,1.31129381 L65.4319623,1.31129381 L48.2827671,37.1290361 L54.6626531,37.1290361 L58.2353775,29.2145567 L73.1387251,29.2145567 L76.7114494,37.1290361 L84.4693483,37.1290361 L84.4693483,37.1290361 Z M70.9440135,24.4964845 L60.378953,24.4964845 L65.5850748,12.8784742 L70.9440135,24.4964845 L70.9440135,24.4964845 Z M91.81875,1.31129381 L91.81875,37.1290361 L99.1173113,37.1290361 L99.1173113,21.3000773 C100.54646,21.553933 101.873337,21.7061289 103.353622,21.7061289 L112.54067,37.1290361 L120.70677,37.1290361 L110.652183,20.1333402 C114.429156,18.4083557 116.878957,15.2122423 116.878957,10.8490979 C116.878957,9.1749433 116.419619,7.19639691 115.551784,5.77580412 C113.15312,1.86924742 109.223034,1.31129381 104.986724,1.31129381 L91.81875,1.31129381 L91.81875,1.31129381 Z M99.1173113,6.23239175 L102.128722,6.23239175 C106.007671,6.23239175 109.427283,7.55132474 109.427283,11.965299 C109.427283,15.4658041 106.722098,18.8144072 99.7808974,18.8144072 L99.1173113,18.8144072 L99.1173113,6.23239175 L99.1173113,6.23239175 Z M151.3813,37.1290361 L151.3813,32.1065722 L135.15078,32.1065722 L135.15078,1.31129381 L127.801378,1.31129381 L127.801378,37.1290361 L151.3813,37.1290361 L151.3813,37.1290361 Z M183.688636,37.1290361 L183.688636,32.258768 L166.335488,32.258768 L166.335488,21.0465155 L179.70771,21.0465155 L179.70771,16.1254175 L166.335488,16.1254175 L166.335488,6.18156186 L181.596197,6.18156186 L181.596197,1.31129381 L159.036631,1.31129381 L159.036631,37.1290361 L183.688636,37.1290361 L183.688636,37.1290361 Z" id="Fill-3"></path>
                    <path d="M266.717012,9.37796907 C265.951449,2.0722732 259.979765,0.144262887 254.56969,0.144262887 C242.575481,0.144262887 240.686994,7.80518041 240.686994,11.4070515 C240.686994,17.6473763 245.433778,20.7421237 252.323843,21.8583247 C255.692614,22.4162784 259.877788,23.4311134 259.877788,27.7434278 C259.877788,30.5337835 257.580805,33.8312629 252.221866,33.8312629 C250.435356,33.8312629 244.208583,33.5268711 241.35058,26.7794227 L239.360118,27.4895722 C239.819455,32.8167216 243.44302,38.1944072 252.834316,38.1944072 C263.348241,38.1944072 267.380303,31.9035464 267.380303,26.3228351 C267.380303,21.1478814 264.267212,17.1907887 254.824779,15.415268 C250.027155,14.501799 247.93442,12.9798402 247.93442,10.0372887 C247.93442,5.47141237 252.936293,4.45657732 255.79459,4.45657732 C257.070627,4.45657732 262.786927,4.65960309 264.624277,9.88509278 L266.717012,9.37796907 L266.717012,9.37796907 Z M274.525456,1.31129381 L274.525456,37.1290361 L281.824017,37.1290361 L281.824017,21.2495412 C283.20203,21.4017371 284.528907,21.6047629 285.958056,21.6047629 C292.492236,21.6047629 299.94391,18.2053299 299.94391,10.747732 C299.94391,5.82663402 296.574252,1.31129381 288.203903,1.31129381 L274.525456,1.31129381 L274.525456,1.31129381 Z M281.824017,6.18156186 L285.141357,6.18156186 C288.407856,6.18156186 292.338533,7.70352062 292.338533,12.2188608 C292.338533,17.4951804 286.468529,18.8649433 282.946941,18.8649433 L281.824017,18.8649433 L281.824017,6.18156186 L281.824017,6.18156186 Z" id="Fill-4"></path>
                    <path d="M337.338248,19.1067526 C337.338248,8.14071649 330.882692,1.24518557 320.525427,1.24518557 C309.541524,1.24518557 303.857443,8.95487629 303.857443,19.2983196 C303.857443,29.5938711 309.541524,37.1122887 320.427885,37.1122887 C334.063177,37.1122887 337.338248,26.0983608 337.338248,19.1067526 L337.338248,19.1067526 Z M329.966382,19.1067526 C329.966382,25.284201 328.234259,32.6107577 320.62297,32.6107577 C312.914138,32.6107577 311.323896,24.8531753 311.323896,18.6757268 C311.323896,12.8814124 313.490527,5.74642268 320.525427,5.74642268 C327.944587,5.74642268 329.966382,12.9771959 329.966382,19.1067526 L329.966382,19.1067526 Z" id="Fill-5"></path>
                    <path d="M376.692308,19.1067526 C376.692308,8.14071649 370.236752,1.24518557 359.879487,1.24518557 C348.895584,1.24518557 343.208547,8.95487629 343.208547,19.2983196 C343.208547,29.5938711 348.895584,37.1122887 359.781944,37.1122887 C373.414281,37.1122887 376.692308,26.0983608 376.692308,19.1067526 L376.692308,19.1067526 Z M369.320442,19.1067526 C369.320442,25.284201 367.585363,32.6107577 359.974074,32.6107577 C352.265242,32.6107577 350.677956,24.8531753 350.677956,18.6757268 C350.677956,12.8814124 352.844587,5.74642268 359.879487,5.74642268 C367.298647,5.74642268 369.320442,12.9771959 369.320442,19.1067526 L369.320442,19.1067526 Z" id="Fill-6"></path>
                    <polyline id="Fill-7" points="414.940883 37.5856237 414.940883 1.31129381 408.949395 1.31129381 408.949395 23.0470979 389.488141 1.31129381 382.917308 1.31129381 382.917308 37.1290361 388.95609 37.1290361 388.95609 10.883768 413.016631 37.5856237 414.940883 37.5856237"></polyline>
                    <path d="M220.211592,1.31658247 L207.607888,27.5445155 L197.301464,1.31658247 L189.439519,1.31658247 C189.439519,1.31658247 203.543903,36.2514124 203.543608,36.252 C203.543608,36.252 203.551588,36.7094691 199.809494,42.3022268 C196.267511,47.5961753 191.446535,52.1823247 184.712835,52.8290103 C178.395613,53.4357371 171.655705,51.4618918 166.765858,47.9061495 L165.560171,49.4137113 L166.21755,50.0730309 C169.970285,53.6458144 177.504427,56.8557371 184.010527,56.8557371 C188.876136,56.8557371 193.693269,55.3713866 197.735677,52.6859227 C201.808825,49.9804794 204.678059,46.1035979 207.208554,42.001067 C207.973821,40.7608763 208.693568,39.4936546 209.412133,38.226433 C213.336307,31.3073969 227.385121,1.63801546 227.533504,1.31658247 L220.211592,1.31658247" id="Fill-8"></path>
                </g>
            </g>
        </g>
    </g>
</svg>